<svg width="16" height="16" viewBox="0 0 16 16" fill="none" xmlns="http://www.w3.org/2000/svg">
<path d="M1.52381 0C0.678095 0 0 0.678095 0 1.52381V9.90476C0 10.7505 0.678095 11.4286 1.52381 11.4286H9.90476C10.7505 11.4286 11.4286 10.7505 11.4286 9.90476V7.61905H9.90476V9.90476H1.52381V1.52381H9.90476V3.04762H11.4286V1.52381C11.4286 0.678095 10.7505 0 9.90476 0M6.09524 4.57143C5.24952 4.57143 4.57143 5.24952 4.57143 6.09524V8.38095H6.09524V6.09524H14.4762V14.4762H6.09524V12.9524H4.57143V14.4762C4.57143 15.3219 5.24952 16 6.09524 16H14.4762C15.3219 16 16 15.3219 16 14.4762V6.09524C16 5.24952 15.3219 4.57143 14.4762 4.57143H6.09524Z" fill="white"/>
</svg>
