<?xml version="1.0" standalone="no"?>
<!DOCTYPE svg PUBLIC "-//W3C//DTD SVG 20010904//EN"
 "http://www.w3.org/TR/2001/REC-SVG-20010904/DTD/svg10.dtd">
<svg version="1.0" xmlns="http://www.w3.org/2000/svg"
 width="160.000000pt" height="160.000000pt" viewBox="0 0 160.000000 160.000000"
 preserveAspectRatio="xMidYMid meet">

<g transform="translate(0.000000,160.000000) scale(0.100000,-0.100000)"
fill="#000000" stroke="none">
<path d="M1000 1414 c-142 -18 -234 -39 -298 -69 -61 -28 -264 -220 -362 -342
-56 -69 -59 -76 -88 -200 -17 -70 -38 -166 -47 -213 -8 -47 -20 -111 -26 -142
-10 -52 -10 -60 10 -92 39 -62 178 -184 224 -197 44 -12 177 -7 324 11 198 25
211 31 340 163 182 188 324 382 355 487 9 30 13 104 13 220 -1 205 -2 207
-109 308 -92 85 -128 93 -336 66z m276 -62 c54 -40 112 -106 121 -139 5 -16 8
-107 8 -203 l0 -175 -32 -60 c-64 -123 -242 -346 -377 -472 -59 -56 -68 -60
-142 -76 -106 -21 -139 -25 -275 -33 -160 -9 -172 -6 -256 71 -102 93 -113
114 -102 195 27 194 82 420 117 480 14 25 96 115 181 201 138 138 163 159 216
179 91 34 245 58 381 59 118 1 122 0 160 -27z"/>
<path d="M1091 1341 l-34 -6 -56 -167 c-52 -153 -79 -208 -104 -208 -5 0 -7
18 -3 43 3 23 9 66 12 95 l6 52 -154 -75 c-151 -74 -153 -76 -177 -125 -14
-28 -27 -50 -30 -50 -4 0 -26 25 -50 55 -24 30 -47 55 -52 55 -13 0 -69 -74
-61 -81 4 -4 34 -21 67 -39 33 -18 64 -36 69 -41 8 -8 -36 -134 -70 -201 -8
-15 -52 -52 -98 -83 -47 -31 -87 -64 -90 -73 -20 -76 -18 -91 23 -134 l39 -43
168 174 169 174 150 -7 150 -6 28 -32 c15 -18 27 -38 27 -44 0 -7 -28 -37 -63
-66 -34 -29 -64 -57 -66 -62 -3 -9 75 -76 89 -76 23 0 207 212 289 331 l50 74
-90 43 c-70 34 -90 48 -86 60 3 10 15 48 26 86 11 38 22 70 23 72 2 2 41 -8
88 -22 46 -13 85 -24 87 -24 2 0 3 47 3 105 0 65 -4 105 -10 105 -6 0 -38 -9
-72 -21 -48 -16 -67 -18 -85 -10 -25 11 -28 27 -14 81 5 19 12 50 15 68 l6 32
-43 -1 c-23 -1 -57 -4 -76 -8z m99 -193 c0 -2 -34 -93 -76 -203 -42 -110 -80
-213 -86 -230 -6 -16 -14 -34 -18 -38 -4 -5 -86 -4 -181 2 l-174 11 -146 -153
c-81 -83 -150 -149 -153 -146 -4 4 47 115 114 248 66 133 120 246 120 251 0 6
65 10 168 10 l167 0 125 125 c106 106 140 136 140 123z"/>
<path d="M725 375 c-28 -14 -77 -27 -110 -30 -83 -9 -105 -20 -143 -72 l-33
-45 78 6 c226 19 319 29 328 36 6 5 20 10 33 12 21 3 20 6 -25 60 -26 32 -55
57 -63 57 -8 0 -38 -11 -65 -24z"/>
</g>
</svg>
